# xmcd
#
# Track frame offsets: 
#        150
#        13840
#        27937
#        42375
#        56525
#        70712
#        83481
#        97482
#        110033
#        123380
#        135990
#        150248
#        163648
#        175985
#        188722
#
# Disc length: 2697 seconds
#
# Revision: 4
# Processed by: cddbd v1.5.2PL0 Copyright (c) Steve Scherf et al.
# Submitted via: ExactAudioCopyFreeDBPlugin 1.0
#
DISCID=c10a870f
DTITLE=John Lee Hooker - Past Perfect, Disc 03 - Hoogie Boogie
DYEAR=2001
DGENRE=Blues
TTITLE0=Crawling Kingsnake
TTITLE1=Alberta
TTITLE2=Wayne County Ramblin' Blues
TTITLE3=Talkin' Boogie
TTITLE4=I Love To Boogie
TTITLE5=Graveyard Blues
TTITLE6=Must I Wait Till Your Man Has Gone
TTITLE7=Cotton Pickin' Boogie
TTITLE8=Hoogie Boogie
TTITLE9=Huckle Up Baby
TTITLE10=Whistlin' And Moanin' Blues
TTITLE11=Momma Poppa Blues
TTITLE12=Burning Hell
TTITLE13=Sailing Blues
TTITLE14=Black Cat Blues
EXTD=
EXTT0=
EXTT1=
EXTT2=
EXTT3=
EXTT4=
EXTT5=
EXTT6=
EXTT7=
EXTT8=
EXTT9=
EXTT10=
EXTT11=
EXTT12=
EXTT13=
EXTT14=
PLAYORDER=
